<svg width="256" height="159" xmlns="http://www.w3.org/2000/svg"><path d="M221.244 77.924c.001.073.006.144.006.217 0 23.454-18.972 42.468-42.376 42.468-23.404 0-42.376-19.014-42.376-42.468V9.28c0-5.126 4.147-9.281 9.262-9.281 5.114 0 9.26 4.155 9.26 9.28v68.86c0 13.204 10.68 23.907 23.854 23.907 13.175 0 23.854-10.703 23.854-23.906 0-.073-.01-.144-.011-.217V62.653c0-5.129 4.15-9.286 9.267-9.286 5.118 0 9.266 4.157 9.266 9.286v15.271h-.006zm-55.703 58.462c6.232 0 11.283 5.062 11.283 11.307 0 6.244-5.051 11.307-11.283 11.307h-.021c-6.23 0-11.282-5.063-11.282-11.307 0-6.245 5.051-11.307 11.282-11.307h.021zm26.687 0c6.232 0 11.283 5.062 11.283 11.307 0 6.244-5.051 11.307-11.283 11.307h-.02c-6.232 0-11.283-5.063-11.283-11.307 0-6.245 5.051-11.307 11.282-11.307h.021zM109.341 0c5.115 0 9.261 4.155 9.261 9.28v69.077c0 23.454-18.972 42.468-42.376 42.468v-.247c-.208.014-.416.03-.628.03-4.502 0-8.236-3.259-9.002-7.55l-17.979 18.017a9.245 9.245 0 0 1-13.096 0c-3.617-3.624-3.617-9.5 0-13.125l23.722-23.774c9.316-9.335 9.316-24.472 0-33.808-9.315-9.335-24.42-9.335-33.735 0-9.315 9.336-9.315 24.473 0 33.808 3.617 3.625 3.617 9.501 0 13.126a9.247 9.247 0 0 1-13.096 0c-16.55-16.585-16.55-43.474 0-60.059 16.548-16.584 43.38-16.584 59.928 0 14.958 14.991 16.393 38.4 4.308 55.009 12.98-.226 23.433-10.834 23.433-23.895V9.28c0-5.126 4.146-9.281 9.26-9.281zm146.28 62.937L256 79.263h-.009c-.105 23.055-10.239 43.736-26.254 57.885-.022.02-.042.033-.064.051a9.416 9.416 0 0 1-6.273 2.394c-5.23 0-9.47-4.25-9.47-9.492a9.47 9.47 0 0 1 3.202-7.103c.033-.035.061-.071.102-.106 12.156-10.744 19.824-26.47 19.824-43.991h.133l-.38-15.964c0-5.205 4.211-9.425 9.405-9.425 5.194 0 9.405 4.22 9.405 9.425z" fill="#FFFFFE" fill-rule="evenodd"/></svg>